Coordinates
version=1
nRows=14
nColumns=28
inDegrees=yes

Units are S.I. units (second, meters, Newtons, ...)
Angles are in degrees.

endheader
time	pelvis_tilt	pelvis_list	pelvis_rotation	pelvis_tx	pelvis_ty	pelvis_tz	hip_flexion_r	hip_adduction_r	hip_rotation_r	knee_angle_r	ankle_angle_r	subtalar_angle_r	mtp_angle_r	hip_flexion_l	hip_adduction_l	hip_rotation_l	knee_angle_l	socket_flexion	socket_adduction	socket_rotation	socket_tx	socket_ty	socket_tz	foot_flex	lumbar_extension	lumbar_bending	lumbar_rotation
      0.63333333	      0.23387775	     -3.39269988	      7.10124454	     -0.00247540	      0.98734685	      0.26665676	     24.11910939	      3.50159207	     -8.93905303	     -6.01447790	     16.69025384	    -17.90220949	    -17.76324032	    -30.48390816	     -5.94601010	     15.75164064	      5.97649784	      4.03995441	      0.00000000	      0.00000000	      0.00000000	      0.00000000	      0.00000000	      8.17533157	    -10.67499173	      3.70306584	     -3.35364406
      0.63750000	     -0.07384462	     -3.29837869	      7.11423828	     -0.00240682	      0.98695853	      0.26669043	     24.48574891	      3.35230161	     -8.93330885	     -6.12424211	     16.54986722	    -17.97764216	    -16.80689237	    -30.11160902	     -5.83190135	     15.87588581	      5.87864587	      4.00896747	      0.00000000	      0.00000000	      0.00000000	      0.00000000	      0.00000000	      8.17045535	    -10.31301081	      3.56365671	     -3.54521709
      0.64166667	      0.29374700	     -3.49950481	      7.03941947	      0.00416959	      0.98639750	      0.26697843	     24.32446145	      3.66464903	     -8.78415498	     -6.90329353	     14.85557685	    -18.37021344	    -11.75150269	    -30.84231433	     -6.01996215	     15.55032658	      5.86732380	      4.19165648	      0.00000000	      0.00000000	      0.00000000	      0.00000000	      0.00000000	      8.11574114	    -10.65053917	      3.90014825	     -3.16346068
      0.64583333	      0.37654998	     -3.62008688	      7.02192277	      0.01070760	      0.98566045	      0.26726312	     24.52686040	      3.83446058	     -8.65015378	     -7.90426275	     14.47979340	    -18.41762310	    -11.72541901	    -31.14102956	     -6.11831547	     15.38749975	      5.59592433	      4.27532858	      0.00000000	      0.00000000	      0.00000000	      0.00000000	      0.00000000	      8.04853036	    -10.65881212	      4.14072487	     -3.17146457
      0.65000000	      0.45241106	     -3.75192722	      6.94305115	      0.01729598	      0.98490992	      0.26765100	     24.74360162	      4.04189621	     -8.44623135	     -8.93102556	     14.06930878	    -18.43826851	    -11.58053386	    -31.44448252	     -6.19211298	     15.17841613	      5.33302852	      4.35893367	      0.00000000	      0.00000000	      0.00000000	      0.00000000	      0.00000000	      7.95500463	    -10.66404020	      4.36968745	     -3.11274115
      0.65416667	      0.53906649	     -3.88643219	      6.86822284	      0.02389771	      0.98422863	      0.26806414	     24.93965138	      4.25268962	     -8.25153245	     -9.94629206	     13.64524608	    -18.46160729	    -11.39664413	    -31.73539505	     -6.26930578	     14.95482442	      5.04036875	      4.45730255	      0.00000000	      0.00000000	      0.00000000	      0.00000000	      0.00000000	      7.83029401	    -10.67138774	      4.59925348	     -3.03489383
      0.65833333	      0.65708292	     -4.00453189	      6.71300795	      0.03064036	      0.98355698	      0.26852121	     25.10013693	      4.45807979	     -8.10413226	    -10.92881655	     11.92793561	    -18.90088671	     -5.99804065	    -32.09406634	     -6.28304787	     14.64308727	      4.78355150	      4.59746213	      0.00000000	      0.00000000	      0.00000000	      0.00000000	      0.00000000	      7.68898031	    -10.71872094	      4.79492112	     -2.69071122
      0.66250000	      0.76419192	     -4.15082432	      6.61600111	      0.03735821	      0.98302500	      0.26891895	     25.26340635	      4.67678985	     -7.97064573	    -11.96253047	     11.52712555	    -18.87484430	     -5.97274610	    -32.36723500	     -6.34193531	     14.39811591	      4.39892786	      4.67447110	      0.00000000	      0.00000000	      0.00000000	      0.00000000	      0.00000000	      7.50957032	    -10.73652010	      5.05541245	     -2.68598975
      0.66666667	      0.86053431	     -4.30771030	      6.59698275	      0.04406978	      0.98260154	      0.26923050	     25.38285975	      4.88920175	     -7.77325144	    -12.91428735	     11.18984115	    -18.84536943	     -5.96020687	    -32.59856627	     -6.46963775	     14.31478407	      4.01685185	      4.78617131	      0.00000000	      0.00000000	      0.00000000	      0.00000000	      0.00000000	      7.29341118	    -10.73854002	      5.32116940	     -2.66452070
      0.67083333	      1.03265407	     -4.44675168	      6.29838253	      0.05087138	      0.98220609	      0.26991195	     25.51712792	      5.17415572	     -7.60092277	    -14.04298066	     10.75951350	    -18.76217292	     -5.70113133	    -32.90892430	     -6.37763683	     13.76334524	      3.46734464	      4.80557599	      0.00000000	      0.00000000	      0.00000000	      0.00000000	      0.00000000	      7.10455498	    -10.85190638	      5.53863403	     -2.42557728
      0.67500000	      1.19229107	     -4.59121086	      6.11212801	      0.05768074	      0.98191816	      0.27043233	     25.61960150	      5.42163381	     -7.45781363	    -15.11716468	     10.36943704	    -18.72213449	     -5.44994935	    -33.16904143	     -6.36374729	     13.40402911	      2.92239749	      4.85558108	      0.00000000	      0.00000000	      0.00000000	      0.00000000	      0.00000000	      6.82806844	    -10.93755108	      5.77679837	     -2.23937440
      0.67916667	      1.36740568	     -4.72901333	      5.91040351	      0.06450108	      0.98174759	      0.27096867	     25.66878788	      5.67208378	     -7.26653181	    -16.13804066	     10.01370971	    -18.63150735	     -5.10107784	    -33.39887464	     -6.32656779	     13.03737174	      2.28204004	      4.88223293	      0.00000000	      0.00000000	      0.00000000	      0.00000000	      0.00000000	      6.55497243	    -11.04234622	      5.99924681	     -2.01260058
      0.68333333	      1.61539610	     -4.71754942	      5.70505906	      0.07117797	      0.98180831	      0.27154944	     25.64800137	      5.75660826	     -7.14885356	    -17.19328546	      9.33081835	    -18.51515806	     -2.74479042	    -33.54354331	     -6.11239625	     12.71836037	      1.23377186	      4.68541309	      0.00000000	      0.00000000	      0.00000000	      0.00000000	      0.00000000	      6.14675737	    -11.28086076	      5.99740225	     -1.50805593
      0.68750000	      1.75456345	     -4.92143846	      5.52824339	      0.07820725	      0.98169807	      0.27195062	     25.68892148	      6.03569080	     -7.07977213	    -18.16392439	      9.01528120	    -18.47017168	     -2.59157512	    -33.72187187	     -6.14262010	     12.34550139	      0.61622253	      4.78501275	      0.00000000	      0.00000000	      0.00000000	      0.00000000	      0.00000000	      5.89186053	    -11.31076480	      6.34751797	     -1.54701224
